<svg xmlns="http://www.w3.org/2000/svg" viewBox="0 0 904.18 179.35"><defs><style>.cls-1{fill:#fff;fill-rule:evenodd;}</style></defs><g id="Layer_2" data-name="Layer 2"><g id="Layer_1-2" data-name="Layer 1"><g id="Layer_1-3" data-name="Layer_1"><g id="_500660628624" data-name=" 500660628624"><path class="cls-1" d="M904.18,161.79l-7-17.77a23.93,23.93,0,0,1-14.51,4.33c-4.48,0-8.83-1.11-12-4.48s-4.14-8.29-4.14-12.87V77h30.1V57H822.77V77H841.3v54.62c0,10.24,2.32,20.53,10,27.84s18,9.54,28.28,9.54a50.3,50.3,0,0,0,13.86-1.87,30.67,30.67,0,0,0,10.79-5.35Z"/><path class="cls-1" d="M761,169a63.92,63.92,0,0,0,30.71-7.3,53.31,53.31,0,0,0,21.17-20.34,57.65,57.65,0,0,0,7.61-29.53,57.09,57.09,0,0,0-7.61-29.43,53.5,53.5,0,0,0-21.17-20.23,67.72,67.72,0,0,0-61.21,0,53.44,53.44,0,0,0-21.17,20.23,57.09,57.09,0,0,0-7.61,29.43,57.55,57.55,0,0,0,7.61,29.53,53.31,53.31,0,0,0,21.17,20.34A63.54,63.54,0,0,0,761,169Zm-33.78-57.17c0-9.74,2.66-18.74,9.52-25.83,6.58-6.81,14.83-9.84,24.26-9.84s17.72,3,24.36,9.84c6.92,7.07,9.62,16,9.62,25.83s-2.7,18.76-9.62,25.83c-6.64,6.79-14.9,9.84-24.36,9.84s-17.68-3-24.26-9.84c-6.86-7.09-9.52-16.09-9.52-25.83Z"/><polygon class="cls-1" points="662.32 19.08 662.32 167.54 687.61 167.54 687.61 19.08 662.32 19.08"/><polygon class="cls-1" points="613.37 19.08 613.37 167.54 638.67 167.54 638.67 19.08 613.37 19.08"/><path class="cls-1" d="M316.47,52.15l8.25-20.33a73.27,73.27,0,0,0-22-9.39,105.53,105.53,0,0,0-26.41-3.35c-10.94,0-22.44,1.4-32.53,5.85-7.87,3.48-15,8.46-19.78,15.71a38.87,38.87,0,0,0-6.55,21.93c0,8.22,1.81,16.4,7.35,22.72a44.52,44.52,0,0,0,17.7,12.39,222.53,222.53,0,0,0,27.2,8c6.35,1.53,12.79,3.2,19,5.27a32.41,32.41,0,0,1,11.65,6.53,14,14,0,0,1,4.7,10.8c0,6.29-3.14,11-8.34,14.32-6.86,4.46-16.84,5.35-24.81,5.35a81.58,81.58,0,0,1-26.58-4.55A75.85,75.85,0,0,1,223.44,132l-9.05,20.32c7,5.95,16,9.84,24.68,12.5a112.18,112.18,0,0,0,32.8,4.82c11,0,22.5-1.42,32.64-5.86,7.87-3.44,15.05-8.38,19.89-15.6a38.31,38.31,0,0,0,6.54-21.82c0-8.14-1.82-16.18-7.34-22.4a45.65,45.65,0,0,0-17.8-12.39,205.54,205.54,0,0,0-26.89-7.88c-6.37-1.51-12.77-3.2-19-5.27A33.35,33.35,0,0,1,248.27,72a13.65,13.65,0,0,1-4.7-10.7c0-6.4,2.89-11.32,8.12-15,6.67-4.62,16.51-5.56,24.4-5.56a76.4,76.4,0,0,1,20.55,3A86.12,86.12,0,0,1,316.47,52.15Z"/><path class="cls-1" d="M371,19.08h-25.3V167.54H371V111.21c0-9.22,2-18.68,8.56-25.52,6.25-6.48,14.46-8.89,23.32-8.89,7.59,0,14.87,1.94,20.16,7.64,5.6,6,7.09,14.62,7.09,22.56v60.54h25.29V103.63c0-13.24-2.83-26.95-12.68-36.48-9.27-9-21.11-12.28-33.76-12.28a58.81,58.81,0,0,0-21.18,3.65A42.4,42.4,0,0,0,371.84,69L371,70Z"/><path class="cls-1" d="M589.4,56.14H564.11V70.9l-.9-1.05a40.76,40.76,0,0,0-15.6-11.23,53.18,53.18,0,0,0-20.23-3.75A58.85,58.85,0,0,0,498.47,62a51.08,51.08,0,0,0-20.12,20c-5.19,9.19-7.3,19.37-7.3,29.86s2.13,20.72,7.3,30a51,51,0,0,0,20.12,20.12A58.84,58.84,0,0,0,527.38,169a54,54,0,0,0,21-4,40.15,40.15,0,0,0,15.9-11.85l.91-1.11v15.45H589.4Zm-58.86,91.37a34.49,34.49,0,0,1-17.3-4.38A31.73,31.73,0,0,1,501,130.61a38.3,38.3,0,0,1-4.48-18.77A38.32,38.32,0,0,1,501,93.06a31.77,31.77,0,0,1,12.2-12.51,36.38,36.38,0,0,1,34.61,0A31.74,31.74,0,0,1,560,93.06a38.33,38.33,0,0,1,4.49,18.78A38.31,38.31,0,0,1,560,130.61a31.7,31.7,0,0,1-12.19,12.52A34.5,34.5,0,0,1,530.54,147.51Z"/><path class="cls-1" d="M859.77,32l-3.25-3.74a10.08,10.08,0,0,1-7.38,2.89,9.77,9.77,0,0,1-5.95-1.78,7.48,7.48,0,0,1-3-4.84l0-.14h21.37c.05-.58.1-1.18.1-1.76a14.93,14.93,0,0,0-1.74-7.3,12.33,12.33,0,0,0-4.85-4.89,14.16,14.16,0,0,0-7-1.74,14.56,14.56,0,0,0-7.17,1.76,12.84,12.84,0,0,0-5,4.92,14.16,14.16,0,0,0-1.79,7.09,14,14,0,0,0,1.84,7.15,12.8,12.8,0,0,0,5.22,4.91,18.25,18.25,0,0,0,14.11.66A11.35,11.35,0,0,0,859.77,32ZM848,13.5a7.71,7.71,0,0,1,5.28,1.87,7.59,7.59,0,0,1,2.53,4.86l0,.14H840.14l0-.14A7.64,7.64,0,0,1,848,13.5Z"/><path class="cls-1" d="M778.3,9h-6.12v3.57l-.22-.25a9.82,9.82,0,0,0-3.77-2.72,13,13,0,0,0-4.89-.9,14.27,14.27,0,0,0-7,1.71,12.39,12.39,0,0,0-4.87,4.84,14.57,14.57,0,0,0-1.77,7.22,14.63,14.63,0,0,0,1.77,7.25,12.4,12.4,0,0,0,4.87,4.87,14.27,14.27,0,0,0,7,1.71,13.12,13.12,0,0,0,5.07-.95,9.93,9.93,0,0,0,3.85-2.87l.22-.27v3.74h5.86Zm-14.24,22.1A8.26,8.26,0,0,1,759.88,30a7.61,7.61,0,0,1-3-3,9.2,9.2,0,0,1-1.09-4.54,9.2,9.2,0,0,1,1.09-4.54,7.65,7.65,0,0,1,3-3,8.79,8.79,0,0,1,8.37,0,7.72,7.72,0,0,1,3,3,9.3,9.3,0,0,1,1.08,4.54A9.3,9.3,0,0,1,771.2,27a7.68,7.68,0,0,1-3,3A8.29,8.29,0,0,1,764.06,31.06Z"/><path class="cls-1" d="M883,15.54l2.33-4.62a15.77,15.77,0,0,0-4.45-1.63,24.91,24.91,0,0,0-5.57-.63A14.79,14.79,0,0,0,866.68,11,7.14,7.14,0,0,0,863.49,17,6.44,6.44,0,0,0,865,21.56a8.32,8.32,0,0,0,3.62,2.28A37.5,37.5,0,0,0,874.08,25a23.47,23.47,0,0,1,4.69,1.08,2.13,2.13,0,0,1,1.53,2.1c0,2.86-3.74,3.13-5.83,3.13a18.35,18.35,0,0,1-5.1-.75,15.88,15.88,0,0,1-4.32-1.9l-2.34,4.62a16.39,16.39,0,0,0,4.92,2.11,24.12,24.12,0,0,0,6.43.86c3.06,0,6.38-.49,9-2.27a7,7,0,0,0,3.25-6,6.19,6.19,0,0,0-1.47-4.39,8.18,8.18,0,0,0-3.53-2.21,39,39,0,0,0-5.33-1.17,22.85,22.85,0,0,1-4.84-1.2,2.34,2.34,0,0,1-1.63-2.28A2.65,2.65,0,0,1,871,14.41a9,9,0,0,1,4.32-.86A15.27,15.27,0,0,1,883,15.54Z"/><path class="cls-1" d="M790.49,9h-5.81V35.91h6.12V22.23a8.89,8.89,0,0,1,1.94-6.14A6.8,6.8,0,0,1,798,14a5.83,5.83,0,0,1,4.62,1.85,8.26,8.26,0,0,1,1.61,5.45V35.91h6.12V22.23a8.86,8.86,0,0,1,2-6.12A6.76,6.76,0,0,1,817.55,14a5.86,5.86,0,0,1,4.63,1.85,8.26,8.26,0,0,1,1.6,5.45V35.91h6.12V20.45c0-3.17-.63-6.54-3-8.85a11,11,0,0,0-8.06-2.94,13.94,13.94,0,0,0-5.8,1.18,11.2,11.2,0,0,0-4.28,3.3l-.11.14-.1-.15a8.64,8.64,0,0,0-3.69-3.34,12.25,12.25,0,0,0-5.37-1.13,13,13,0,0,0-5,.95,9.87,9.87,0,0,0-3.77,2.77l-.22.26V9Z"/><path class="cls-1" d="M739.77,17.92V29l-.06,0a14.55,14.55,0,0,1-7.39,1.85,13.53,13.53,0,0,1-6.71-1.65A12.11,12.11,0,0,1,721,24.69a12.78,12.78,0,0,1-1.67-6.48A12.92,12.92,0,0,1,721,11.63a11.67,11.67,0,0,1,4.63-4.48,14.05,14.05,0,0,1,6.76-1.59,13.5,13.5,0,0,1,9.83,4l4-3.9a15.87,15.87,0,0,0-6-4.21A21.53,21.53,0,0,0,732.06,0a20.5,20.5,0,0,0-9.84,2.35,17.48,17.48,0,0,0-6.85,6.5,17.86,17.86,0,0,0-2.48,9.36,17.83,17.83,0,0,0,2.48,9.35,17.47,17.47,0,0,0,6.82,6.5A20.26,20.26,0,0,0,732,36.42a24.44,24.44,0,0,0,7.5-1.17,19.94,19.94,0,0,0,6.33-3.3v-14Z"/><path class="cls-1" d="M78.4,69h68.76v32A60.26,60.26,0,0,1,87,161.09H18.26V92.33A60.27,60.27,0,0,1,78.4,32.19h87V13.93h-87A78.54,78.54,0,0,0,0,92.33v87H87a78.53,78.53,0,0,0,78.4-78.4V50.72h-87A41.73,41.73,0,0,0,36.79,92.33v50.23H87A41.72,41.72,0,0,0,128.63,101V87.51H110.37V101A23.46,23.46,0,0,1,87,124.3h-32v-32A23.46,23.46,0,0,1,78.4,69Z"/></g></g></g></g></svg>